<?xml version="1.0" encoding="UTF-8" standalone="no"?>
<!-- Created with Inkscape (http://www.inkscape.org/) -->

<svg
   xmlns:dc="http://purl.org/dc/elements/1.1/"
   xmlns:cc="http://creativecommons.org/ns#"
   xmlns:rdf="http://www.w3.org/1999/02/22-rdf-syntax-ns#"
   xmlns:svg="http://www.w3.org/2000/svg"
   xmlns="http://www.w3.org/2000/svg"
   xmlns:sodipodi="http://sodipodi.sourceforge.net/DTD/sodipodi-0.dtd"
   xmlns:inkscape="http://www.inkscape.org/namespaces/inkscape"
   id="svg2"
   version="1.1"
   inkscape:version="0.48.4 r9939"
   width="1320"
   height="640"
   sodipodi:docname="qrcode.png">
  <metadata
     id="metadata8">
    <rdf:RDF>
      <cc:Work
         rdf:about="">
        <dc:format>image/svg+xml</dc:format>
        <dc:type
           rdf:resource="http://purl.org/dc/dcmitype/StillImage" />
        <dc:title></dc:title>
      </cc:Work>
    </rdf:RDF>
  </metadata>
  <defs
     id="defs6" />
  <sodipodi:namedview
     pagecolor="#ffffff"
     bordercolor="#666666"
     borderopacity="1"
     objecttolerance="10"
     gridtolerance="10"
     guidetolerance="10"
     inkscape:pageopacity="0"
     inkscape:pageshadow="2"
     inkscape:window-width="721"
     inkscape:window-height="480"
     id="namedview4"
     showgrid="false"
     inkscape:zoom="0.20302536"
     inkscape:cx="303.53827"
     inkscape:cy="114.22853"
     inkscape:window-x="0"
     inkscape:window-y="25"
     inkscape:window-maximized="0"
     inkscape:current-layer="svg2" />
  <path
     style="fill:#000000"
     d="m 1095.1082,638.68854 c -8.4882,-1.59106 -12.8272,-6.62695 -9.7527,-11.31918 0.9082,-1.38608 2.997,-3.21607 4.6418,-4.06664 3.2933,-1.70302 3.7854,-2.97617 1.4906,-3.85676 -2.3484,-0.90115 -1.7613,-4.28122 1.1064,-6.37021 l 2.6065,-1.89866 -2.8565,-1.85961 c -4.1899,-2.72778 -5.2891,-4.56035 -5.3246,-8.87754 -0.026,-3.18109 0.6574,-4.55681 3.8506,-7.75 3.8102,-3.81021 6.0043,-4.52843 12.1057,-3.9627 1.3685,0.12689 3.0055,0.66009 3.6379,1.1849 0.7326,0.60806 2.8709,0.56846 5.8945,-0.10915 2.6097,-0.58484 5.022,-0.78627 5.3606,-0.44761 0.8971,0.89707 -2.9363,3.45221 -5.1792,3.45221 -1.3418,0 -1.7327,0.47729 -1.3046,1.5929 1.567,4.08363 1.5235,6.15943 -0.1958,9.32983 -1.9586,3.61195 -7.2374,7.07727 -10.7809,7.07727 -2.6282,0 -6.1608,3.65979 -4.8235,4.99712 0.5224,0.52243 4.4098,1.61186 8.6386,2.42096 9.2047,1.76114 11.5538,2.89802 12.8088,6.19892 2.1009,5.5257 -5.4423,13.09299 -14.5445,14.59113 -1.65,0.27158 -4.9709,0.12434 -7.3797,-0.32718 z m 14.2448,-4.95353 c 3.4281,-2.69649 3.5814,-7.26112 0.3159,-9.40078 -1.2754,-0.83571 -4.9879,-1.79397 -8.25,-2.12948 -5.1323,-0.52786 -6.3013,-0.31658 -8.681,1.569 -3.9865,3.15879 -3.7735,7.43922 0.5,10.0448 4.4972,2.74197 12.5763,2.70009 16.1151,-0.0835 z m -4.9953,-26.51585 c 0.8434,-0.32363 2.0274,-2.08504 2.6311,-3.91424 2.079,-6.29935 -2.4173,-12.49733 -9.066,-12.49733 -5.7842,0 -8.1478,9.87805 -3.4804,14.54545 2.3935,2.39348 6.5181,3.16976 9.9153,1.86612 z m 155.9,30.0061 2.7697,-1.50226 -0.2697,-21.17893 c -0.2654,-20.83584 -0.3062,-21.19708 -2.5192,-22.2996 -2.1572,-1.07476 -2.091,-1.16814 1.616,-2.27878 5.5889,-1.67445 5.9802,-1.52777 6.323,2.37014 l 0.3104,3.52824 3.7746,-3.12129 c 2.076,-1.71671 5.001,-3.45785 6.5,-3.86919 9.5341,-2.61627 16.2894,10.94068 11.2681,22.61321 -4.3355,10.07794 -9.7988,12.88719 -17.303,8.89718 l -4.7397,-2.52012 0,8.969 0,8.96899 3.25,1.4213 c 3.1427,1.37438 2.9694,1.42266 -5.25,1.46283 -8.1131,0.0396 -8.3739,-0.0268 -5.7302,-1.46072 z m 23.3281,-20.74823 c 7.5929,-6.53117 1.3224,-27.03353 -7.3392,-23.99674 -0.9673,0.33913 -3.2212,1.98978 -5.0087,3.66812 -3.1317,2.94043 -3.25,3.33737 -3.25,10.90424 l 0,7.85272 4.25,1.92915 c 5.5928,2.53867 8.0717,2.46058 11.3479,-0.35749 z M 5.2379849,621.19757 c -4.17747,-1.53008 -4.24953996,-1.63629 -4.2231,-6.22331 l 0.0269,-4.66667 2.7231,3.14913 c 3.45635,3.9971 6.16415,5.35087 10.7028101,5.35087 4.7852,0 8.52029,-3.62426 8.52029,-8.26745 0,-4.19496 -3.18835,-7.3673 -11.6484,-11.58994 -9.7526001,-4.86777 -12.4087101,-9.85161 -8.6455401,-16.22216 2.25114,-3.81088 6.93603,-5.92045 13.1480101,-5.92045 4.79491,0 10.14593,1.56607 10.14593,2.96939 0,0.35659 -0.61491,1.48929 -1.36647,2.5171 -1.32703,1.81483 -1.44381,1.80791 -4.04696,-0.23973 -3.55045,-2.79279 -7.91907,-3.66977 -10.7779201,-2.16363 -2.97819,1.56901 -3.77452,2.82703 -3.79334,5.99256 -0.0193,3.24962 2.84648,5.88876 10.6012101,9.76275 10.49663,5.24374 13.47446,10.95289 9.77702,18.74467 -3.18772,6.71761 -12.87368,9.83587 -21.1435401,6.80687 z m 159.1038951,0.0346 c -4.49223,-1.64907 -5.6312,-3.75059 -4.43774,-8.1881 l 0.73598,-2.73651 1.23775,2.30351 c 1.76895,3.29209 7.01369,6.1884 11.21409,6.19275 4.90715,0.005 8.89602,-3.69923 8.89602,-8.26142 0,-4.19748 -3.18661,-7.36872 -11.6484,-11.59223 -9.75259,-4.86777 -12.40871,-9.85161 -8.64554,-16.22216 2.29626,-3.88726 6.96136,-5.92045 13.58429,-5.92045 6.93242,0 10.61836,2.38477 8.389,5.42762 -1.38901,1.89586 -1.45643,1.89289 -4.09277,-0.18086 -3.55046,-2.79279 -7.91907,-3.66977 -10.77793,-2.16363 -2.97818,1.56901 -3.77452,2.82703 -3.79334,5.99256 -0.0193,3.24962 2.84648,5.88876 10.60121,9.76275 10.81307,5.40182 13.68045,11.30234 9.28922,19.11548 -3.79623,6.75448 -12.39976,9.46328 -20.55184,6.47069 z m 71.65828,0.26895 c -3.68269,-1.26025 -4.60968,-3.17678 -3.55981,-7.35981 l 0.62948,-2.50806 2.24001,3.32396 c 2.71504,4.02884 6.59506,5.61733 10.42814,4.26931 2.37393,-0.83486 2.75,-1.50841 2.75,-4.92525 0,-3.82464 -0.23098,-4.09704 -6.84888,-8.07689 -3.76688,-2.26532 -7.24749,-4.74832 -7.73468,-5.51779 -1.7028,-2.68936 -0.97429,-6.94091 1.59777,-9.32462 3.10636,-2.87888 6.9416,-3.71206 11.91933,-2.5894 5.03409,1.13537 6.04798,2.24674 4.56965,5.00902 l -1.18209,2.20876 -2.71527,-2.6014 c -3.06603,-2.93744 -7.18226,-3.3821 -9.5344,-1.02996 -0.86429,0.86428 -1.57143,1.88916 -1.57143,2.27749 0,1.85872 3.54738,5.38593 7.31608,7.27449 2.30116,1.15314 5.42142,3.25631 6.93392,4.6737 5.23258,4.90354 2.51773,13.06231 -5.04549,15.16287 -4.5739,1.27032 -5.79491,1.23841 -10.19233,-0.26642 z m 46.00443,0.0204 c -6.13446,-3.10382 -4.4824,-11.90524 2.946,-15.69493 2.21705,-1.13105 6.05743,-2.33421 8.53419,-2.67369 4.4082,-0.60421 4.5032,-0.69471 4.5032,-4.29017 0,-4.41725 -1.57594,-6.72312 -5.18999,-7.59382 -2.2069,-0.53169 -3.33531,-0.003 -6.28333,2.94526 -3.99579,3.99579 -8.39732,5.08868 -6.54347,1.62473 1.78983,-3.34434 9.51113,-7.20445 14.56369,-7.28083 7.21816,-0.10912 7.86652,1.11722 8.4531,15.98876 0.48712,12.34984 0.56138,12.69081 2.88273,13.23594 1.982,0.46545 2.14467,0.75712 0.96723,1.73431 -4.42402,3.67168 -8.84996,3.2168 -8.84996,-0.90949 0,-1.95169 -1.49823,-2.4209 -2.50883,-0.78571 -0.80285,1.29904 -8.00677,4.99034 -9.70133,4.97097 -0.70941,-0.008 -2.40737,-0.58017 -3.77323,-1.27126 z m 12.98339,-5.60968 c 1.93962,-1.40079 2.56832,-2.84766 2.80479,-6.45487 0.28929,-4.41287 0.1732,-4.64938 -2.28212,-4.64938 -8.51207,0 -14.63358,7.74623 -9.87891,12.5009 1.91201,1.91202 5.52077,1.37332 9.35624,-1.39665 z m 128.36408,5.76488 c -3.47638,-1.74631 -4.36408,-5.30799 -4.36408,-17.5098 0,-10.70557 -0.14567,-11.58466 -2,-12.06958 -2.70956,-0.70857 -2.5383,-2.28648 0.25,-2.3034 1.2375,-0.008 3.2625,-0.285 4.5,-0.61664 2.23444,-0.5988 2.25039,-0.52438 2.30644,10.76366 0.0691,13.9152 1.2895,18.2345 5.28121,18.69151 1.80478,0.20663 4.2617,-0.61751 6.75001,-2.26419 l 3.9123,-2.58907 0,-10.57943 c 0,-9.73843 -0.159,-10.62101 -2,-11.10244 -1.1,-0.28766 -2,-0.86165 -2,-1.27554 0,-0.68119 5.6556,-1.97596 8.75,-2.0032 0.9428,-0.008 1.25,3.5365 1.25,14.42257 l 0,14.43358 2.75,0.33349 c 2.6882,0.32599 2.6554,0.38366 -1.4601,2.56642 -2.3156,1.22811 -4.4182,2.23293 -4.6725,2.23293 -0.2542,0 -0.973,-1.54752 -1.5972,-3.43893 l -1.135,-3.43894 -4.1926,2.93086 c -4.79755,3.35378 -9.23868,4.36824 -12.32848,2.81614 z m 39.13588,-0.0641 c -1.1,-0.62377 -2.3306,-1.62258 -2.7347,-2.21959 -0.404,-0.597 -0.7415,-7.04796 -0.75,-14.33546 l -0.015,-13.25 -2.6224,0 c -2.2177,0 -2.4303,-0.23152 -1.3776,-1.5 0.6847,-0.825 1.8648,-1.5 2.6225,-1.5 0.9606,0 1.3775,-1.32712 1.3775,-4.38499 0,-3.57384 0.4625,-4.688 2.5,-6.02305 l 2.5,-1.63807 0,6.02306 0,6.02305 6,0 c 3.3,0 6,0.3949 6,0.87756 0,2.11794 -2.8978,3.09818 -7.3535,2.48745 l -4.6465,-0.63686 0.014,10.88593 c 0.01,5.98725 0.2742,11.85682 0.5925,13.04347 0.7512,2.80013 3.2293,3.38499 7.753,1.82982 5.2926,-1.81952 4.4588,0.0645 -1.3259,2.99578 -5.6237,2.84976 -5.7927,2.87594 -8.5332,1.3219 z m 27.5711,-0.50269 c -6.6624,-3.50203 -10.093,-11.79363 -8.0375,-19.42687 1.3765,-5.11205 7.2052,-11.57129 11.5156,-12.76147 9.4674,-2.61405 18.4508,4.87243 18.4508,15.37616 0,12.3924 -12.3395,21.85272 -21.9289,16.81218 z m 13.1832,-4.03908 c 4.7122,-4.24662 4.2474,-17.27185 -0.811,-22.73003 -3.3838,-3.65115 -9.7924,-3.31193 -12.7576,0.67528 -3.1287,4.20708 -3.3551,12.24527 -0.501,17.78807 3.5312,6.85786 9.2649,8.59664 14.0696,4.26668 z m 78.3806,3.66414 c -2.0258,-1.59346 -2.6349,-2.95654 -2.6349,-5.89641 0,-5.35474 4.8122,-9.50071 12.9871,-11.18922 l 6.0129,-1.24194 0,-4.27687 c 0,-3.40807 -0.4863,-4.59554 -2.3941,-5.84556 -3.1195,-2.04398 -7.4157,-0.989 -8.8573,2.17504 -1.0953,2.40397 -5.2288,4.21506 -6.5451,2.86774 -1.2755,-1.30549 6.791,-7.28137 11.3928,-8.44012 3.5146,-0.88498 5.1037,-0.85362 7.1794,0.14169 4.2564,2.04093 5.1934,5.18149 5.2096,17.46181 l 0.015,11.18358 2.75,0.33349 c 2.6584,0.32238 2.6024,0.41161 -1.681,2.67909 -4.2316,2.24003 -4.4904,2.26442 -5.75,0.54181 -0.7255,-0.9921 -1.319,-2.3928 -1.319,-3.11268 0,-1.80354 -1.4807,-1.63971 -3.1276,0.34603 -1.4732,1.77646 -6.9151,4.3451 -9.2054,4.3451 -0.7685,0 -2.583,-0.93266 -4.0321,-2.07258 z m 13.6151,-4.57979 c 2.444,-1.24329 2.75,-1.9526 2.75,-6.37331 0,-4.60381 -0.1813,-4.97432 -2.4349,-4.97432 -6.1412,0 -10.5651,3.56825 -10.5651,8.52174 0,5.45819 3.2918,6.36572 10.25,2.82589 z m 24.5394,5.5943 c -2.622,-1.52857 -3.7777,-7.39011 -3.7838,-19.19193 -0.01,-10.46994 -0.064,-10.75087 -2.2556,-10.78327 l -2.25,-0.0333 2.25,-1.87702 c 1.5521,-1.29478 2.25,-2.96942 2.25,-5.39864 0,-2.77153 0.639,-3.97661 3,-5.6578 l 3,-2.13619 0,6.0681 0,6.06809 5.3334,0 c 5.8957,0 7.2123,0.63765 5.5219,2.67439 -0.8161,0.9834 -2.4701,1.18028 -5.9913,0.71317 l -4.864,-0.64519 0,11.54704 c 0,6.35088 0.2732,12.25885 0.607,13.12883 0.703,1.83181 6.4381,2.16324 9.4588,0.54661 1.1524,-0.61678 1.9342,-0.65294 1.9342,-0.0895 0,1.0029 -9.6595,6.14579 -11.4463,6.09422 -0.5795,-0.0167 -1.8234,-0.47917 -2.7643,-1.02766 z m 28.656,0.0992 c -3.6145,-1.46385 -8.2026,-7.64487 -8.9475,-12.05391 -2.1371,-12.64936 9.6629,-24.87162 19.8878,-20.5994 3.7227,1.55546 6.0758,4.47292 7.1583,8.87521 1.192,4.84779 -0.6162,5.73697 -11.6664,5.73697 l -9.8776,0 0,3.35212 c 0,8.3889 7.8993,13.518 15.5039,10.06686 2.1979,-0.99743 4.4461,-2.01147 4.9961,-2.25342 0.55,-0.24195 -0.125,0.80481 -1.5,2.32614 -4.2448,4.69654 -10.601,6.5556 -15.5546,4.54939 z m 12.5546,-23.08658 c 0,-3.25587 -3.7742,-7.95455 -6.3894,-7.95455 -3.5361,0 -6.7859,2.17541 -8.1589,5.46152 -0.7984,1.91083 -1.4517,3.9387 -1.4517,4.50636 0,0.62348 3.1674,1.03212 8,1.03212 l 8,0 0,-3.04545 z m 21.4185,23.0766 c -2.7339,-1.10598 -7.2565,-6.53749 -8.0388,-9.65441 -0.3408,-1.35801 -0.4188,-4.89087 -0.1734,-7.85079 0.8954,-10.7967 10.1859,-17.85212 20.0437,-15.22165 l 2.75,0.7338 0,-9.51905 c 0,-8.85238 -0.14,-9.51905 -2,-9.51905 -3.4468,0 -2.1787,-1.70877 1.75,-2.35815 2.0625,-0.34091 4.3125,-0.62479 5,-0.63084 0.9669,-0.009 1.25,5.6365 1.25,24.92257 l 0,24.93358 2.75,0.33349 c 2.7037,0.32786 2.6808,0.37023 -1.3541,2.51231 -4.5442,2.41247 -6.3959,1.71389 -6.3959,-2.41296 0,-2.8707 -1.1359,-2.92188 -3.595,-0.16198 -1.7824,2.00044 -7.3719,4.9405 -9.1228,4.79859 -0.4302,-0.0349 -1.7189,-0.44232 -2.8637,-0.90546 z m 11.9467,-6.10373 c 2.5116,-1.9756 2.6348,-2.51103 2.6348,-11.4433 0,-8.54981 -0.1947,-9.50708 -2.2225,-10.92742 -2.5733,-1.80245 -8.0073,-2.03925 -10.9279,-0.47621 -2.647,1.41664 -4.8496,6.83373 -4.8496,11.92723 0,4.26981 3.0413,11.44384 5.2233,12.32109 2.9601,1.19006 7.6758,0.53845 10.1419,-1.40139 z m 85.7059,5.37494 c -9.8581,-5.18178 -11.5091,-18.38425 -3.4188,-27.33922 9.7189,-10.75768 25.351,-4.13559 25.3462,10.7372 0,12.33378 -12.3148,21.65474 -21.9274,16.60202 z m 13.1832,-4.03908 c 4.207,-3.79133 4.4922,-14.54282 0.5574,-21.01496 -2.0901,-3.438 -4.7883,-4.61536 -9.3419,-4.0764 -6.6305,0.78477 -9.5931,12.45825 -5.2851,20.82468 3.5312,6.85786 9.2649,8.59664 14.0696,4.26668 z m 24.0544,3.83827 c -13.0375,-6.06946 -10.0818,-28.03293 4.3071,-32.00589 9.9127,-2.73704 20.0754,7.65438 17.8366,18.23802 -2.4728,11.68976 -12.8065,18.11472 -22.1437,13.76787 z m 11.6326,-2.57117 c 5.0696,-2.62158 6.639,-12.45989 3.1953,-20.03038 -2.4961,-5.48719 -4.2341,-6.6778 -9.2127,-6.31111 -5.8392,0.43008 -8.0038,3.47779 -8.1165,11.42797 -0.1004,7.07703 2.2327,12.79247 6.0741,14.88005 3.3589,1.82537 4.5848,1.83047 8.0598,0.0335 z m 116.0995,1.8505 c -7.7372,-6.51042 -8.7993,-17.76063 -2.3953,-25.37133 4.5275,-5.38073 11.104,-7.49341 17.2518,-5.54216 2.0325,0.6451 2.1027,0.36153 2.1027,-8.49362 0,-8.32001 -0.1836,-9.20902 -2,-9.68402 -1.1,-0.28766 -2,-0.86165 -2,-1.27554 0,-0.68119 5.6556,-1.97596 8.75,-2.0032 0.9669,-0.009 1.25,5.6365 1.25,24.92257 l 0,24.93358 2.75,0.33349 c 2.7037,0.32786 2.6808,0.37023 -1.3541,2.51231 -4.3513,2.31007 -6.3959,1.71742 -6.3959,-1.85394 0,-2.71588 -1.5516,-3.01512 -3.6163,-0.69742 -1.9692,2.21043 -7.2784,4.8384 -9.7748,4.8384 -0.8005,0 -2.8561,-1.1786 -4.5681,-2.61912 z m 14.3244,-4.45346 c 2.5127,-1.97655 2.6348,-2.50833 2.6348,-11.47695 0,-8.84313 -0.1443,-9.49893 -2.4183,-10.98891 -1.5216,-0.997 -4.0124,-1.46904 -6.7173,-1.27305 -3.6097,0.26154 -4.6651,0.85638 -6.5817,3.70937 -2.4674,3.67289 -3.0817,10.87038 -1.3226,15.49709 2.4702,6.49722 9.211,8.61814 14.4051,4.53245 z m 45.37096,5.82258 c -2.8463,-2.16138 -3.7362,-6.52364 -3.7362,-18.3151 l 0,-11.4349 -2.74996,-0.0266 -2.75,-0.0266 2.75,-1.70501 c 2.17806,-1.3504 2.74996,-2.45652 2.74996,-5.3184 0,-2.23061 0.6998,-4.24673 1.8287,-5.26838 3.2115,-2.9063 4.1713,-2.02154 4.1713,3.84501 l 0,5.5 5.3333,0 c 5.8957,0 7.2123,0.63765 5.522,2.67439 -0.8162,0.9834 -2.4701,1.18028 -5.9914,0.71317 l -4.8639,-0.64522 0,12.0574 c 0,14.35268 0.5937,15.52832 7.1035,14.06567 5.901,-1.32587 5.8201,-0.50453 -0.2483,2.51946 -5.9674,2.97369 -6.8306,3.1029 -9.119,1.36513 z m 143.2054,0.30177 c -5.7821,-1.75453 -6.9416,-2.93827 -6.9416,-7.08695 0,-4.47669 1.0673,-5.07615 2.9094,-1.63414 1.7447,3.26002 6.2374,5.66932 10.5718,5.66932 5.3176,0 10.0129,-4.7794 9.1135,-9.27667 -0.8389,-4.19454 -1.9648,-5.20905 -11.2625,-10.14825 -5.9118,-3.14051 -8.3151,-5.05202 -9.8017,-7.79606 -1.8851,-3.47978 -1.8963,-3.78862 -0.2629,-7.21406 2.355,-4.93847 7.0008,-7.5566 13.4173,-7.56122 8.77,-0.006 12.7563,2.72535 8.7858,6.02059 -1.2679,1.05222 -1.9431,0.88049 -3.9495,-1.00442 -4.7055,-4.42056 -14.5212,-2.25694 -14.5212,3.20082 0,3.59983 1.9261,5.49608 10.4311,10.26954 4.6835,2.62861 9.2475,5.89649 10.1422,7.26195 3.8401,5.86069 0.7712,14.28279 -6.5581,17.99778 -4.5739,2.31838 -7.6355,2.64848 -12.0736,1.30177 z m 37.079,-0.16781 c -5.975,-2.38392 -9.1635,-7.7369 -9.1635,-15.38396 0,-8.96615 4.4997,-14.84793 13.057,-17.06768 3.5278,-0.91509 6.0271,-1.01122 8.5048,-0.3271 4.3468,1.2002 4.87,2.00475 3.5543,5.46538 l -1.0412,2.73844 -2.8373,-2.71831 c -2.3448,-2.24649 -3.58,-2.66384 -7.116,-2.40452 -5.7285,0.42011 -8.2137,3.71019 -8.7249,11.55035 -0.4969,7.6208 1.8894,12.21201 7.3489,14.13908 3.4767,1.22716 4.329,1.17889 7.8973,-0.44727 2.2,-1.0026 4.45,-2.02086 5,-2.26281 0.55,-0.24195 -0.125,0.80481 -1.5,2.32614 -4.3185,4.77807 -9.9061,6.41646 -14.9794,4.39226 z m 119.6156,-0.16074 c -2.4935,-1.82323 -3.585,-7.70727 -3.6123,-19.47322 -0.023,-9.94591 -0.091,-10.25099 -2.2739,-10.28327 l -2.25,-0.0333 2.25,-1.87702 c 1.5521,-1.29478 2.25,-2.96942 2.25,-5.39864 0,-2.77153 0.639,-3.97661 3,-5.6578 l 3,-2.13619 0,6.0681 0,6.06809 6,0 c 3.3,0 6,0.3949 6,0.87756 0,2.11794 -2.8979,3.09818 -7.3536,2.48745 l -4.6464,-0.63686 0,11.55414 c 0,6.35477 0.2731,12.26594 0.607,13.13592 0.7029,1.83181 6.438,2.16324 9.4587,0.54661 1.358,-0.72677 1.9343,-0.71306 1.9343,0.046 0,1.05951 -9.4735,5.96017 -11.5589,5.97941 -0.5823,0.005 -1.8446,-0.56478 -2.8049,-1.26701 z M 34.487985,620.32058 c 2.7945,-1.23318 3.46188,-2.71778 9.743,-21.67351 4.95205,-14.94476 7.30192,-20.6987 8.84737,-21.66385 1.15741,-0.72281 2.23084,-1.17053 2.38541,-0.99492 0.15456,0.17561 3.64133,9.94131 7.74839,21.70156 6.04368,17.30567 7.92574,21.63628 9.8716,22.71457 2.16103,1.19752 1.59501,1.32903 -5.59577,1.30004 -6.48257,-0.0261 -7.57322,-0.23807 -5.75,-1.11737 2.69426,-1.2994 2.76467,-2.47101 0.56738,-9.44162 l -1.68263,-5.33789 -7.73701,0 -7.73701,0 -1.72602,5.25 c -0.94931,2.8875 -1.92097,5.77953 -2.15924,6.42674 -0.23827,0.6472 0.83977,1.86668 2.39565,2.70996 2.75067,1.49084 2.62154,1.53208 -4.67112,1.49169 -7.08293,-0.0392 -7.33317,-0.11516 -4.5,-1.3654 z m 24.50481,-18.26299 c 0.008,-1.22253 -5.26515,-15.67695 -6.04947,-16.58286 -0.39659,-0.45808 -2.09188,3.25442 -3.76731,8.25 l -3.04623,9.08286 6.4291,0 c 3.536,0 6.43127,-0.3375 6.43391,-0.75 z m 19.99519,19.22525 c 0,-0.28861 1.125,-0.95248 2.5,-1.47525 l 2.5,-0.9505 0,-19.99975 0,-19.99975 -3.25,0.60724 c -2.63254,0.49187 -3.01966,0.36126 -2.03758,-0.68743 0.78523,-0.83848 4.83728,-1.43645 11.5,-1.69708 8.52815,-0.33359 10.883785,-0.092 13.773665,1.41243 6.72688,3.50198 7.08458,10.24598 0.82555,15.56484 -2.29969,1.95426 -2.75071,2.75 -1.55866,2.75 2.63459,0 8.6557,5.87717 9.58063,9.3516 1.58188,5.94221 -1.46757,11.71137 -7.55149,14.28642 -3.10055,1.31232 -26.282115,2.05078 -26.282115,0.83723 z m 22.603405,-2.51456 c 3.98031,-1.51332 5.32895,-3.84809 5.36479,-9.28761 0.0265,-4.02483 -0.45393,-5.31266 -2.89128,-7.75 -2.58942,-2.58942 -3.61673,-2.92308 -8.999995,-2.92308 l -6.07692,0 0,9.91667 c 0,6.99766 0.36794,10.06513 1.25,10.42105 2.22817,0.89909 8.54906,0.68918 11.353405,-0.37703 z m -1.30554,-24.14931 c 2.48176,-1.28789 3.95479,-5.65104 3.22363,-9.54848 -0.74131,-3.95153 -4.606025,-6.2629 -10.471835,-6.2629 l -4.04966,0 0,9.06127 0,9.06128 4.75,-0.6891 c 2.6125,-0.379 5.55904,-1.10893 6.547865,-1.62207 z m 19.70213,26.66387 c 0,-0.28861 1.125,-0.95248 2.5,-1.47525 l 2.5,-0.9505 0,-19.44142 0,-19.44141 -2.75,-1.00439 c -2.06177,-0.75302 1.09783,-1.02414 12.625,-1.08333 l 15.375,-0.079 -0.625,3.125 c -0.34375,1.71875 -0.625,3.54531 -0.625,4.05902 0,0.51371 -0.45,0.6559 -1,0.31598 -0.55,-0.33992 -1,-1.44333 -1,-2.45203 0,-2.43944 -1.91301,-3.04797 -9.58179,-3.04797 l -6.41821,0 0,8 0,8 7.5,0 c 7.06366,0 9.11196,0.87315 6.25,2.66426 -0.6875,0.43026 -4.0793,0.63998 -7.53733,0.46603 l -6.28734,-0.31626 0.28734,9.84299 0.28733,9.84298 6.46915,0.30341 c 8.35794,0.39199 10.16234,-0.12525 12.25424,-3.5127 l 1.72339,-2.79071 0.013,2.5 c 0.007,1.375 -0.25839,3.5125 -0.59003,4.75 -0.59217,2.20969 -0.87854,2.25 -15.98634,2.25 -8.46089,0 -15.38341,-0.23614 -15.38341,-0.52475 z m 91,0 c 0,-0.28861 1.13849,-0.9576 2.52998,-1.48665 l 2.52997,-0.96189 -0.27997,-12.73555 c -0.26383,-12.00069 -0.40747,-12.799 -2.48955,-13.83541 -2.05234,-1.0216 -1.85666,-1.21271 2.75,-2.68587 l 4.95957,-1.586 0,15.43281 0,15.43281 2.5,0.9505 c 1.375,0.52277 2.5,1.18664 2.5,1.47525 0,0.28861 -3.375,0.52475 -7.5,0.52475 -4.125,0 -7.5,-0.23614 -7.5,-0.52475 z m 101,0 c 0,-0.28861 1.13849,-0.9576 2.52998,-1.48665 l 2.52997,-0.96189 -0.27997,-12.73555 c -0.26537,-12.07094 -0.39736,-12.79397 -2.52935,-13.85525 -2.15696,-1.07371 -2.09056,-1.16729 1.61602,-2.27781 5.76069,-1.72595 6.13335,-1.55327 6.13335,2.8419 0,4.67883 0.76941,4.94406 4.07569,1.40499 5.1667,-5.53051 12.27819,-7.05111 15.92431,-3.40499 1.79526,1.79526 2,3.33333 2,15.02475 l 0,13.02475 2.75,1.19457 c 2.73803,1.18937 2.73138,1.19605 -1.52643,1.53404 -2.35204,0.18671 -5.95204,0.18355 -8,-0.007 l -3.72357,-0.34651 2.75,-1.18755 2.75,-1.18755 0,-11.09049 c 0,-6.09977 -0.46583,-11.96091 -1.03518,-13.02475 -1.35109,-2.52453 -5.33021,-2.48959 -9.49332,0.0833 -5.40377,3.33972 -6.4715,5.89243 -6.4715,15.47196 0,8.21046 0.10207,8.59874 2.5,9.51043 1.375,0.52277 2.5,1.18664 2.5,1.47525 0,0.28861 -3.375,0.52475 -7.5,0.52475 -4.125,0 -7.5,-0.23614 -7.5,-0.52475 z m 57,-0.007 c 0,-0.29273 1.0125,-0.89568 2.25,-1.33991 1.86271,-0.66865 3.45491,-4.30528 9.25,-21.12715 5.01545,-14.55874 7.59821,-20.70778 9.11002,-21.68913 2.36996,-1.53838 1.16674,-4.238 12.39705,27.81499 3.87284,11.05367 5.6582,14.88447 7.3088,15.68232 1.72808,0.8353 0.5137,1.05664 -5.81587,1.06003 -6.24328,0.003 -7.45907,-0.21163 -5.53662,-0.97902 1.35485,-0.54083 2.63861,-1.15856 2.85278,-1.37274 0.21418,-0.21418 -0.59353,-3.34316 -1.7949,-6.95329 l -2.18432,-6.56435 -7.73585,0 -7.73585,0 -1.68262,5.33789 c -2.26827,7.19578 -2.14105,8.32801 1.06738,9.49983 2.30165,0.84063 1.56799,1.01726 -4.5,1.08333 -3.9875,0.0434 -7.25,-0.16055 -7.25,-0.45327 z m 26,-19.15823 c 0,-1.83897 -5.50806,-17.31002 -6.16261,-17.31002 -0.70437,0 -5.83739,14.99408 -5.83739,17.05162 0,0.52161 2.7,0.94838 6,0.94838 3.3,0 6,-0.3107 6,-0.69045 z m 122.99996,19.1657 c 0,-0.28861 1.1385,-0.9576 2.53,-1.48665 l 2.53,-0.96189 -0.28,-12.73555 c -0.2654,-12.07094 -0.3973,-12.79397 -2.5293,-13.85525 -2.157,-1.07371 -2.0906,-1.16729 1.616,-2.27781 5.7759,-1.73052 6.1333,-1.55997 6.1333,2.92689 l 0,4.08498 4.6408,-4.08498 c 4.2977,-3.783 6.4866,-4.65212 10.3592,-4.11322 2.296,0.3195 5,3.12263 5,5.18322 0,2.43627 1.2561,2.33277 3.595,-0.29622 3.2262,-3.62621 9.2054,-5.82433 12.6124,-4.63665 4.0684,1.41828 4.7926,4.11817 4.7926,17.86773 0,11.83683 0.026,11.96941 2.5,12.91015 1.375,0.52277 2.5,1.18664 2.5,1.47525 0,0.28861 -3.4875,0.50115 -7.75,0.4723 -7.3373,-0.0497 -7.6301,-0.13604 -5.5,-1.62197 2.1256,-1.48272 2.25,-2.24732 2.25,-13.82511 0,-9.49388 -0.3272,-12.52713 -1.452,-13.46064 -1.9858,-1.64805 -5.3765,-0.4568 -9.298,3.26665 -3.2304,3.06724 -3.25,3.14425 -3.25,12.76771 0,8.90874 0.1797,9.8072 2.25,11.25139 2.1302,1.48593 1.8373,1.57231 -5.5,1.62197 -4.2625,0.0289 -7.75,-0.18369 -7.75,-0.4723 0,-0.28861 1.125,-0.95248 2.5,-1.47525 2.4743,-0.9407 2.5,-1.07374 2.5,-12.90382 0,-9.64055 -0.3106,-12.26394 -1.6053,-13.5587 -2.4455,-2.44549 -6.6602,-0.63831 -11.5736,4.96252 -1.3966,1.59197 -1.7613,3.89218 -1.7878,11.27475 -0.032,8.98642 0.044,9.3043 2.4667,10.22525 1.375,0.52277 2.5,1.18664 2.5,1.47525 0,0.28861 -3.375,0.52475 -7.5,0.52475 -4.125,0 -7.5,-0.23614 -7.5,-0.52475 z m 211,0 c 0,-0.28861 1.125,-0.95248 2.5,-1.47525 l 2.5,-0.9505 0,-19.88608 0,-19.88608 -2.5,0.47791 c -1.375,0.26285 -2.5,0.0343 -2.5,-0.50783 0,-2.4278 19.0808,-3.07615 24.4544,-0.83095 7.2569,3.03215 8.2873,10.08728 2.2221,15.21494 -1.747,1.47701 -2.7265,2.84096 -2.1765,3.031 5.5634,1.92228 10.5,7.98932 10.5,12.90434 0,3.79024 -3.2807,8.39073 -7.4087,10.38905 -3.5145,1.70089 -6.1823,2.04373 -15.907,2.04373 -6.4263,0 -11.6843,-0.23614 -11.6843,-0.52475 z m 23.5385,-2.92688 c 6.2836,-2.62546 7.03,-11.13374 1.4649,-16.69883 -2.4514,-2.45192 -3.6286,-2.85001 -8.4264,-2.85001 l -5.577,0 0,9.83333 c 0,5.40834 0.3,10.13334 0.6667,10.5 1.1805,1.18054 8.2933,0.71024 11.8718,-0.78496 z m -6.0385,-22.52334 c 4.8524,-1.12428 7.5,-4.13398 7.5,-8.5255 0,-5.10543 -2.7404,-7.67256 -8.8135,-8.25611 l -5.1865,-0.49835 0,9.12723 c 0,9.98171 -0.2173,9.70912 6.5,8.15273 z m 98.5,25.44975 c 0,-0.28861 1.125,-0.95248 2.5,-1.47525 l 2.5,-0.9505 0,-23.5057 0,-23.5057 -2.75,-0.71343 c -2.7277,-0.70766 -2.7175,-0.7234 1.25,-1.9422 8.1188,-2.494 7.5,-4.52484 7.5,24.61753 0,21.97117 0.2233,26 1.441,26 0.7926,0 1.7191,0.45 2.059,1 0.3912,0.63298 -2.1562,1 -6.9409,1 -4.1575,0 -7.5591,-0.23614 -7.5591,-0.52475 z m 19.0908,-8.70482 -7.1819,-9.22956 6.2956,-5.6911 c 6.1025,-5.51656 6.2342,-5.73855 4.2955,-7.23863 -1.8636,-1.44204 -1.5398,-1.5497 4.75,-1.57934 3.8546,-0.0182 6.75,0.39716 6.75,0.9682 0,0.55 -0.7493,1 -1.6652,1 -1.908,0 -15.3348,9.91463 -15.3348,11.32348 0,0.51227 3.1987,4.69905 7.1082,9.30396 4.7882,5.63986 7.8073,8.37756 9.25,8.38787 1.7494,0.0125 1.867,0.19292 0.6418,0.98469 -0.825,0.53316 -2.9011,0.97627 -4.6136,0.98469 -2.7477,0.0135 -3.9578,-1.06948 -10.2956,-9.21426 z m 35.9092,8.70482 c 0,-0.28861 1.1346,-0.9561 2.5212,-1.48331 l 2.5212,-0.95856 -0.2712,-19.72233 -0.2712,-19.72233 -2.5,-0.69468 c -1.375,-0.38207 4.3625,-0.73954 12.75,-0.79436 l 15.25,-0.0997 0,2.41821 c 0,1.33002 -0.291,3.17665 -0.6467,4.10362 -0.5169,1.3471 -0.9087,1.06243 -1.9517,-1.41821 -1.296,-3.08212 -1.3573,-3.10362 -8.8533,-3.10362 l -7.5483,0 0,8 0,8 7.607,0 c 6.5258,0 7.5207,0.22483 7,1.58179 -0.3338,0.86998 -0.607,1.7099 -0.607,1.86648 0,0.15658 -3.15,0.0593 -7,-0.21616 l -7,-0.50084 0,9.52737 c 0,10.99472 -0.226,10.74136 9.5818,10.74136 5.0849,0 6.8337,-0.41548 8.4182,-2 1.1,-1.1 2,-2.45 2,-3 0,-0.55 0.4079,-1 0.9064,-1 0.4985,0 0.7506,0.7875 0.5602,1.75 -0.1903,0.9625 -0.6068,2.9875 -0.9254,4.5 l -0.5793,2.75 -15.4809,0 c -8.5145,0 -15.481,-0.23614 -15.481,-0.52475 z m 77,0 c 0,-0.28861 1.125,-0.95248 2.5,-1.47525 2.489,-0.94628 2.5,-1.00787 2.5,-13.89192 l 0,-12.94141 -2.6396,-0.8799 c -2.4664,-0.82213 -2.2695,-0.98294 3,-2.44961 l 5.6396,-1.56973 0,15.24431 c 0,14.67721 0.084,15.3027 2.25,16.81384 2.1302,1.48593 1.8373,1.57231 -5.5,1.62197 -4.2625,0.0289 -7.75,-0.18369 -7.75,-0.4723 z m 46.99996,0 c 0,-0.28861 1.125,-0.95248 2.5,-1.47525 2.4723,-0.93996 2.5,-1.08172 2.5,-12.78412 0,-11.93894 -0.6385,-14.4055 -4,-15.45342 -0.825,-0.25718 0.75,-1.11199 3.5,-1.89958 l 5,-1.43197 0.2756,15.31902 c 0.2746,15.26842 0.2837,15.32212 2.75,16.25979 4.0421,1.53683 2.8972,1.99028 -5.0256,1.99028 -4.125,0 -7.5,-0.23614 -7.5,-0.52475 z m 20,0 c 0,-0.28861 1.1385,-0.9576 2.53,-1.48665 l 2.53,-0.96189 -0.28,-12.73555 c -0.2654,-12.07094 -0.3974,-12.79397 -2.5294,-13.85525 -2.1569,-1.07371 -2.0905,-1.16729 1.616,-2.27781 5.7607,-1.72595 6.1334,-1.55327 6.1334,2.8419 0,4.67883 0.7694,4.94406 4.0757,1.40499 5.1667,-5.53051 12.2782,-7.05111 15.9243,-3.40499 1.7953,1.79526 2,3.33333 2,15.02475 l 0,13.02475 2.75,1.19457 c 2.738,1.18937 2.7314,1.19605 -1.5264,1.53404 -2.3521,0.18671 -5.9521,0.18355 -8,-0.007 l -3.7236,-0.34649 2.75,-1.18755 2.75,-1.18755 0,-11.09049 c 0,-6.09977 -0.4658,-11.96091 -1.0352,-13.02475 -1.9755,-3.69132 -9.6866,-1.64603 -13.8765,3.68062 -1.762,2.24006 -2.0883,4.04374 -2.0883,11.54473 0,8.56242 0.092,8.9249 2.5,9.84039 1.375,0.52277 2.5,1.18664 2.5,1.47525 0,0.28861 -3.375,0.52475 -7.5,0.52475 -4.125,0 -7.5,-0.23614 -7.5,-0.52475 z m 163,0 c 0,-0.28861 1.125,-0.95248 2.5,-1.47525 2.4741,-0.94063 2.5,-1.07443 2.5,-12.89346 0,-13.51102 -0.3474,-15.08091 -3.357,-15.16993 -2.0773,-0.0614 -2.0817,-0.0881 -0.143,-0.87027 1.1,-0.44378 3.4625,-1.12601 5.25,-1.51606 l 3.25,-0.70919 0,4.07945 c 0,4.85603 0.8885,5.14125 3.2252,1.03529 3.1482,-5.53189 11.8413,-7.10967 12.5702,-2.28144 0.1624,1.07618 -0.21,3.2772 -0.8277,4.89115 l -1.123,2.93446 -1.3741,-3.25 c -1.6027,-3.79085 -4.0737,-4.20005 -7.2867,-1.20669 -3.5099,3.26997 -5.1839,8.5798 -5.1839,16.44312 l 0,7.24218 3.75,1.53851 3.75,1.53852 -8.75,0.0972 c -4.8125,0.0534 -8.75,-0.13896 -8.75,-0.42757 z m 31,0 c 0,-0.28861 1.1385,-0.9576 2.53,-1.48665 l 2.53,-0.96189 -0.28,-12.73555 c -0.2638,-12.00069 -0.4075,-12.799 -2.4896,-13.83541 -2.0523,-1.0216 -1.8566,-1.21271 2.75,-2.68587 l 4.9596,-1.586 0,15.43281 0,15.43281 2.5,0.9505 c 1.375,0.52277 2.5,1.18664 2.5,1.47525 0,0.28861 -3.375,0.52475 -7.5,0.52475 -4.125,0 -7.5,-0.23614 -7.5,-0.52475 z M 216.02781,580.35558 c -2.39242,-2.88269 1.79599,-8.00356 4.95122,-6.05352 1.7323,1.07062 1.11636,5.37768 -0.92531,6.47035 -2.47723,1.32577 -2.58931,1.31416 -4.02591,-0.41683 z m 765.96433,-0.043 c -0.9999,-1.20476 -0.9221,-1.98133 0.4006,-4 1.8308,-2.79412 3.7774,-3.19541 5.49,-1.13176 1.4018,1.68898 0.4845,4.35342 -1.9467,5.65453 -2.3543,1.25998 -2.478,1.24359 -3.9439,-0.52277 z m 47.03556,0.043 c -2.3924,-2.88269 1.796,-8.00356 4.9513,-6.05352 1.5181,0.93827 1.2129,4.15872 -0.5625,5.9341 -1.9486,1.94861 -2.8503,1.97315 -4.3888,0.11942 z m 214,0 c -2.3924,-2.88269 1.796,-8.00356 4.9513,-6.05352 1.7323,1.07062 1.1163,5.37768 -0.9254,6.47035 -2.4772,1.32577 -2.5893,1.31416 -4.0259,-0.41683 z m -803.03976,-105.04799 0,-46.5 46.5,0 46.5,0 0,46.5 0,46.5 -46.5,0 -46.5,0 0,-46.5 z m 80,0 0,-33.5 -33.5,0 -33.5,0 0,33.5 0,33.5 33.5,0 33.5,0 0,-33.5 z m -53,0 0,-19.5 19.5,0 19.5,0 0,19.5 0,19.5 -19.5,0 -19.5,0 0,-19.5 z m 80,40 0,-6.5 13,0 13,0 0,6.5 0,6.5 -13,0 -13,0 0,-6.5 z m 40,0 0,-6.5 13,0 13,0 0,6.5 0,6.5 -13,0 -13,0 0,-6.5 z m 40,0 0,-6.5 6,0 6,0 0,6.5 0,6.5 -6,0 -6,0 0,-6.5 z m 27,0 0,-6.5 6.5,0 6.5,0 0,-7 0,-7 -13.5,0 -13.5,0 0,-6 0,-6 7,0 7,0 0,-14 0,-14 -7,0 -7,0 0,-6 0,-6 7,0 7,0 0,-7.54381 0,-7.54381 -7.25,0.29381 -7.25,0.29381 -0.2957,6.75 -0.2956,6.75 -19.4544,0 -19.4543,0 0,-6.5 0,-6.5 13.5,0 13.5,0 0,-7 0,-7 -20.5,0 -20.5,0 0,6.5 0,6.5 -13,0 -13,0 0,7.5 0,7.5 19.5,0 19.5,0 0,6 0,6 -6.5,0 -6.5,0 0,6.5 0,6.5 -13,0 -13,0 0,-6.5 0,-6.5 -6.5,0 -6.5,0 0,-20 0,-20 -46.5,0 -46.5,0 0,-6 0,-6 6.5,0 6.5,0 0,-7.5 0,-7.5 -7,0 -7,0 0,7 0,7 -6.5,0 -6.5,0 0,-13 0,-13 26.5,0 26.5,0 0,6 0,6 -6.5,0 -6.5,0 0,7.5 0,7.5 13.5,0 13.5,0 0,-20 0,-20 6.5,0 6.5,0 0,6.5 0,6.5 6.5,0 6.5,0 0,6 0,6 -6.5,0 -6.5,0 0,7.5 0,7.5 13.5,0 13.5,0 0,-7 0,-7 19.5,0 19.5,0 0,7 0,7 14,0 14,0 0,-7 0,-7 6,0 6,0 0,7 0,7 6.5,0 6.5,0 0,6.5 0,6.5 13.5,0 13.5,0 0,6.5 0,6.5 14,0 14,0 0,-13 0,-13 6,0 6,0 0,13 0,13 7,0 7,0 0,-6.5 0,-6.5 7,0 7,0 0,-6.5 0,-6.5 6,0 6,0 0,6.5 0,6.5 7,0 7,0 0,-14 0,-14 -13,0 -13,0 0,-6.5 0,-6.5 -7.5,0 -7.5,0 0,13.5 0,13.5 -6,0 -6,0 0,-7 0,-7 -6.5,0 -6.5,0 0,-6 0,-6 6.5,0 6.5,0 0,-6.5 0,-6.5 13.5,0 13.5,0 0,-13.5 0,-13.5 12.5,0 12.5,0 0,6.5 0,6.5 7,0 7,0 0,6.5 0,6.5 -7,0 -7,0 0,7 0,7 7,0 7,0 0,13.5 0,13.5 13.5,0 13.5,0 0,-7 0,-7 19.5,0 19.5,0 0,19.5 0,19.5 -6.5,0 -6.5,0 0,20 0,20 -26.5,0 -26.5,0 0,20 0,20 -7,0 -7,0 0,7 0,7 -6,0 -6,0 0,-13 0,-13 6.5,0 6.5,0 0,-7 0,-7 -13,0 -13,0 0,-13 0,-13 6.5,0 6.5,0 0,-14 0,-14 -7,0 -7,0 0,7 0,7 -20,0 -20,0 0,7 0,7 6.5,0 6.5,0 0,13 0,13 -6,0 -6,0 0,-7.04381 0,-7.04381 -7.25,0.29381 -7.25,0.29381 -0.2707,20.25 -0.2707,20.25 13.5207,0 13.5207,0 0,6.5 0,6.5 -26,0 -26,0 0,-6.5 z m 160,-80 0,-20.5 -20.5,0 -20.5,0 0,20.5 0,20.5 20.5,0 20.5,0 0,-20.5 z m -27,0 0,-6.5 6,0 6,0 0,6.5 0,6.5 -6,0 -6,0 0,-6.5 z m -67,80 0,-6.5 6.5,0 6.5,0 0,6.5 0,6.5 -6.5,0 -6.5,0 0,-6.5 z m 54,0 0,-6.5 6.5,0 6.5,0 0,-13 0,-13 13,0 13,0 0,6 0,6 -7,0 -7,0 0,13.5 0,13.5 -12.5,0 -12.5,0 0,-6.5 z m 53,0 0,-6.5 13,0 13,0 0,6.5 0,6.5 -13,0 -13,0 0,-6.5 z m -253,-20 0,-12.5 13,0 13,0 0,-13.5 0,-13.5 6.5,0 6.5,0 0,19.5 0,19.5 -13.5,0 -13.5,0 0,6.5 0,6.5 -6,0 -6,0 0,-12.5 z m 40,6.5 0,-6 6,0 6,0 0,6 0,6 -6,0 -6,0 0,-6 z m 93,-6.5 0,-12.5 6,0 6,0 0,12.5 0,12.5 -6,0 -6,0 0,-12.5 z m 107,6.5 0,-6 6,0 6,0 0,6 0,6 -6,0 -6,0 0,-6 z m 53,0 0,-6 6,0 6,0 0,6 0,6 -6,0 -6,0 0,-6 z m -320,-20 0,-13 6.5,0 6.5,0 0,13 0,13 -6.5,0 -6.5,0 0,-13 z m 280,7 0,-6 6,0 6,0 0,6 0,6 -6,0 -6,0 0,-6 z m -200,-13.5 0,-6.5 6,0 6,0 0,6.5 0,6.5 -6,0 -6,0 0,-6.5 z m 227,0 0,-6.5 12.5,0 12.5,0 0,6.5 0,6.5 -12.5,0 -12.5,0 0,-6.5 z m -14,-20 0,-12.5 6.5,0 6.5,0 0,12.5 0,12.5 -6.5,0 -6.5,0 0,-12.5 z m 14,-33.5 0,-6 6,0 6,0 0,6 0,6 -6,0 -6,0 0,-6 z m -187,-13 0,-6 6,0 6,0 0,6 0,6 -6,0 -6,0 0,-6 z m 200,-7.5 0,-13.5 -13.5,0 -13.5,0 0,-6 0,-6 13.5,0 13.5,0 0,-6.5 0,-6.5 6,0 6,0 0,26 0,26 -6,0 -6,0 0,-13.5 z m -227,-6.5 0,-7 -6.5,0 -6.5,0 0,-6 0,-6 6.5,0 6.5,0 0,-6.5 0,-6.5 7,0 7,0 0,-14 0,-14 -13.5,0 -13.5,0 0,-6 0,-6 6.5,0 6.5,0 0,-7 0,-7 6.5,0 6.5,0 0,7 0,7 6.5,0 6.5,0 0,6.5 0,6.5 7,0 7,0 0,-6.5 0,-6.5 6.5,0 6.5,0 0,6.5 0,6.5 6.5,0 6.5,0 0,6.5 0,6.5 -20,0 -20,0 0,7 0,7 6.5,0 6.5,0 0,12.5 0,12.5 -6,0 -6,0 0,-6.5 0,-6.5 -7,0 -7,0 0,13.5 0,13.5 -6.5,0 -6.5,0 0,-7 z m 40,0.5 0,-6.5 6.5,0 6.5,0 0,6.5 0,6.5 -6.5,0 -6.5,0 0,-6.5 z m -93,-13.5 0,-6 6.5,0 6.5,0 0,-6.5 0,-6.5 6.5,0 6.5,0 0,12.5 0,12.5 -13,0 -13,0 0,-6 z m -53,-13 0,-6 6,0 6,0 0,6 0,6 -6,0 -6,0 0,-6 z m 253,0 0,-6 13,0 13,0 0,6 0,6 -13,0 -13,0 0,-6 z m 40,-7 0,-13 19.5,0 19.5,0 0,6.5 0,6.5 -13.5,0 -13.5,0 0,6.5 0,6.5 -6,0 -6,0 0,-13 z m -387,-19.5 0,-19.5 6.5,0 6.5,0 0,6.5 0,6.5 6.5,0 6.5,0 0,6.5 0,6.5 -6.5,0 -6.5,0 0,6.5 0,6.5 -6.5,0 -6.5,0 0,-19.5 z m 80,13 0,-6.5 6.5,0 6.5,0 0,6.5 0,6.5 -6.5,0 -6.5,0 0,-6.5 z m 54,0 0,-6.5 6.5,0 6.5,0 0,-6.5 0,-6.5 6,0 6,0 0,13 0,13 -12.5,0 -12.5,0 0,-6.5 z m 40,0 0,-6.5 12.5,0 12.5,0 0,6.5 0,6.5 -12.5,0 -12.5,0 0,-6.5 z m -80,-13.5 0,-7 -13.5,0 -13.5,0 0,-6 0,-6 19.5,0 19.5,0 0,13 0,13 -6,0 -6,0 0,-7 z m 240,0.5 0,-6.5 20,0 20,0 0,-26.5 0,-26.5 19.5,0 19.5,0 0,13 0,13 -7,0 -7,0 0,6.5 0,6.5 -6.5,0 -6.5,0 0,13.5 0,13.5 -26,0 -26,0 0,-6.5 z m 93,0 0,-6.5 6,0 6,0 0,6.5 0,6.5 -6,0 -6,0 0,-6.5 z m -387,-20.5 0,-13 -13,0 -13,0 0,-6.5 0,-6.5 6.5,0 6.5,0 0,-6.5 0,-6.5 6.5,0 6.5,0 0,13 0,13 7,0 7,0 0,-13 0,-13 13,0 13,0 0,6.5 0,6.5 6.5,0 6.5,0 0,6.5 0,6.5 -13.5,0 -13.5,0 0,6.5 0,6.5 -6.5,0 -6.5,0 0,6.5 0,6.5 -6.5,0 -6.5,0 0,-13 z m 80,7 0,-6 13,0 13,0 0,6 0,6 -13,0 -13,0 0,-6 z m 40,0 0,-6 6.5,0 6.5,0 0,6 0,6 -6.5,0 -6.5,0 0,-6 z m 120,0 0,-6 6.5,0 6.5,0 0,6 0,6 -6.5,0 -6.5,0 0,-6 z m 40,-0.5 0,-6.5 -13,0 -13,0 0,-6.5 0,-6.5 -13.5,0 -13.5,0 0,-6.5 0,-6.5 6.5,0 6.5,0 0,-6.5 0,-6.5 20,0 20,0 0,-6.5 0,-6.5 6.5,0 6.5,0 0,6.5 0,6.5 6.5,0 6.5,0 0,6.5 0,6.5 6.5,0 6.5,0 0,13 0,13 -13,0 -13,0 0,6.5 0,6.5 -6.5,0 -6.5,0 0,-6.5 z m 14,-26.5 0,-7 -7.5,0 -7.5,0 0,7 0,7 7.5,0 7.5,0 0,-7 z m 66,27 0,-6 6.5,0 6.5,0 0,6 0,6 -6.5,0 -6.5,0 0,-6 z m -293,-20 0,-13 19.5,0 19.5,0 0,6.5 0,6.5 -13,0 -13,0 0,6.5 0,6.5 -6.5,0 -6.5,0 0,-13 z m 67,6.5 0,-6.5 6,0 6,0 0,6.5 0,6.5 -6,0 -6,0 0,-6.5 z m 253,0 0,-6.5 6,0 6,0 0,6.5 0,6.5 -6,0 -6,0 0,-6.5 z m -240,-19.5 0,-13 13,0 13,0 0,6 0,6 -7,0 -7,0 0,7 0,7 -6,0 -6,0 0,-13 z m 27,6.5 0,-6.5 6,0 6,0 0,6.5 0,6.5 -6,0 -6,0 0,-6.5 z m 26,0 0,-6.5 6.5,0 6.5,0 0,6.5 0,6.5 -6.5,0 -6.5,0 0,-6.5 z m -240,-13.5 0,-6 6.5,0 6.5,0 0,6 0,6 -6.5,0 -6.5,0 0,-6 z m 94,0 0,-6 6,0 6,0 0,6 0,6 -6,0 -6,0 0,-6 z m 66,-0.5 0,-6.5 -13,0 -13,0 0,-6 0,-6 6.5,0 6.5,0 0,-7 0,-7 20,0 20,0 0,-6.5 0,-6.5 6,0 6,0 0,13 0,13 -13,0 -13,0 0,13 0,13 -6.5,0 -6.5,0 0,-6.5 z m -146,-13 0,-6.5 -7,0 -7,0 0,-6.5 0,-6.5 13.5,0 13.5,0 0,-6.5 0,-6.5 6.5,0 6.5,0 0,6.5 0,6.5 7,0 7,0 0,-26.5 0,-26.5 6.5,0 6.5,0 0,-6.5 0,-6.5 19.5,0 19.5,0 0,6 0,6 -13,0 -13,0 0,6.5 0,6.5 -7,0 -7,0 0,7.5 0,7.5 7,0 7,0 0,6.5 0,6.5 6.5,0 6.5,0 0,6 0,6 -13.5,0 -13.5,0 0,7 0,7 -6.5,0 -6.5,0 0,6.5 0,6.5 -6.5,0 -6.5,0 0,-6.5 0,-6.5 -7,0 -7,0 0,6.5 0,6.5 -6,0 -6,0 0,-6.5 z m 66,0.5 0,-6 6.5,0 6.5,0 0,6 0,6 -6.5,0 -6.5,0 0,-6 z m 27,0 0,-6 6.5,0 6.5,0 0,6 0,6 -6.5,0 -6.5,0 0,-6 z m 120,0 0,-6 20,0 20,0 0,-7.5 0,-7.5 -6.5,0 -6.5,0 0,-6 0,-6 6.5,0 6.5,0 0,-14 0,-14 -7,0 -7,0 0,7 0,7 -6.5,0 -6.5,0 0,-7 0,-7 -6.5,0 -6.5,0 0,-6.5 0,-6.5 -20,0 -20,0 0,-19.5 0,-19.5 6,0 6,0 0,6.5 0,6.5 7.5,0 7.5,0 0,-7 0,-7 -7,0 -7,0 0,-6 0,-5.99999 7,0 7,0 0,-7 0,-7 13,0 13,0 0,-13 0,-13 6.5,0 6.5,0 0,19.5 0,19.5 -7,0 -7,0 0,6.49999 0,6.5 -6.5,0 -6.5,0 0,7 0,7 6.5,0 6.5,0 0,13.5 0,13.5 20,0 20,0 0,6.5 0,6.5 7.5,0 7.5,0 0,-6.5 0,-6.5 6.5,0 6.5,0 0,-6.5 0,-6.5 6,0 6,0 0,13 0,13 7,0 7,0 0,13.5 0,13.5 6.5,0 6.5,0 0,6 0,6 -13,0 -13,0 0,-13 0,-13 -7,0 -7,0 0,13 0,13 -13.5,0 -13.5,0 0,13.5 0,13.5 -26,0 -26,0 0,-6 z m 120,0 0,-6 6.5,0 6.5,0 0,-7 0,-7 6.5,0 6.5,0 0,13 0,13 -13,0 -13,0 0,-6 z m -227,-13.5 0,-6.5 6.5,0 6.5,0 0,6.5 0,6.5 -6.5,0 -6.5,0 0,-6.5 z m 187,0 0,-6.5 6,0 6,0 0,6.5 0,6.5 -6,0 -6,0 0,-6.5 z m 80,-0.5 0,-7 -6.5,0 -6.5,0 0,-6 0,-6 6.5,0 6.5,0 0,-7 0,-7 -7,0 -7,0 0,6.5 0,6.5 -13,0 -13,0 0,-26 0,-26 6,0 6,0 0,13 0,13 14,0 14,0 0,-13 0,-13 6,0 6,0 0,6.5 0,6.5 7.5,0 7.5,0 0,-6.5 0,-6.5 12.5,0 12.5,0 0,32.5 0,32.5 -6.5,0 -6.5,0 0,7 0,7 -6,0 -6,0 0,-13 0,-13 6.5,0 6.5,0 0,-7 0,-7 -6.5,0 -6.5,0 0,-7 0,-7 -7.5,0 -7.5,0 0,27 0,27 -6,0 -6,0 0,-7 z m -173,-19.5 0,-12.5 12.5,0 12.5,0 0,6 0,6 -6.5,0 -6.5,0 0,6.5 0,6.5 -6,0 -6,0 0,-12.5 z m -214,-6.5 0,-6 6.5,0 6.5,0 0,6 0,6 -6.5,0 -6.5,0 0,-6 z m 107,0 0,-6 6.5,0 6.5,0 0,-7 0,-7 6.5,0 6.5,0 0,7 0,7 6.5,0 6.5,0 0,6 0,6 -19.5,0 -19.5,0 0,-6 z m 53,-7 0,-13 7,0 7,0 0,-6.5 0,-6.5 6,0 6,0 0,13 0,13 -6.5,0 -6.5,0 0,6.5 0,6.5 -6.5,0 -6.5,0 0,-13 z m -146,-13 0,-13 6.5,0 6.5,0 0,-6.5 0,-6.5 13,0 13,0 0,6 0,6 -6.5,0 -6.5,0 0,13.5 0,13.5 -13,0 -13,0 0,-13 z m 66,6.5 0,-6.5 6.5,0 6.5,0 0,6.5 0,6.5 -6.5,0 -6.5,0 0,-6.5 z m 27,-13.5 0,-6 6.5,0 6.5,0 0,6 0,6 -6.5,0 -6.5,0 0,-6 z m 27,-0.5 0,-6.5 -7,0 -7,0 0,-6 0,-6 13,0 13,0 0,12.5 0,12.5 -6,0 -6,0 0,-6.5 z m -134,-12.5 0,-6 6.5,0 6.5,0 0,6 0,6 -6.5,0 -6.5,0 0,-6 z m 160,-0.5 0,-6.5 -6.5,0 -6.5,0 0,-6.5 0,-6.5 6.5,0 6.5,0 0,-13 0,-12.99999 13,0 13,0 0,5.99999 0,6 -6.5,0 -6.5,0 0,20 0,20 -6.5,0 -6.5,0 0,-6.5 z m 120,0.5 0,-6 6.5,0 6.5,0 0,6 0,6 -6.5,0 -6.5,0 0,-6 z m -173,-20 0,-13 6.5,0 6.5,0 0,13 0,13 -6.5,0 -6.5,0 0,-13 z m 147,6.5 0,-6.5 6,0 6,0 0,6.5 0,6.5 -6,0 -6,0 0,-6.5 z m 40,-6.5 0,-13 6,0 6,0 0,13 0,13 -6,0 -6,0 0,-13 z m 26,0 0,-13 6.5,0 6.5,0 0,13 0,13 -6.5,0 -6.5,0 0,-13 z m -320,-46.99999 0,-46.000005 46.5,0 46.5,0 0,46.000005 0,45.99999 -46.5,0 -46.5,0 0,-45.99999 z m 80,0 0,-34.000005 -33.5,0 -33.5,0 0,34.000005 0,33.99999 33.5,0 33.5,0 0,-33.99999 z m -53,0.5 0,-19.5 19.5,0 19.5,0 0,19.5 0,19.5 -19.5,0 -19.5,0 0,-19.5 z m 107,39.49999 0,-6 6,0 6,0 0,6 0,6 -6,0 -6,0 0,-6 z m 106,0 0,-6 6.5,0 6.5,0 0,6 0,6 -6.5,0 -6.5,0 0,-6 z m 27,0 0,-6 6,0 6,0 0,6 0,6 -6,0 -6,0 0,-6 z m 80,-39.99999 0,-46.000005 46,0 46,0 0,46.000005 0,45.99999 -46,0 -46,0 0,-45.99999 z m 80,0 0,-34.000005 -34,0 -34,0 0,34.000005 0,33.99999 34,0 34,0 0,-33.99999 z m -53,0.5 0,-19.5 19.5,0 19.5,0 0,19.5 0,19.5 -19.5,0 -19.5,0 0,-19.5 z m -254,26.49999 0,-5.99999 6.5,0 6.5,0 0,5.99999 0,6 -6.5,0 -6.5,0 0,-6 z m 160,0 0,-5.99999 6.5,0 6.5,0 0,5.99999 0,6 -6.5,0 -6.5,0 0,-6 z m 27,-0.5 0,-6.49999 -6.5,0 -6.5,0 0,-6.5 0,-6.5 6.5,0 6.5,0 0,-6.5 0,-6.5 6.5,0 6.5,0 0,-6.5 0,-6.5 6.5,0 6.5,0 0,19.5 0,19.5 -7,0 -7,0 0,6.49999 0,6.5 -6,0 -6,0 0,-6.5 z m -160,-19.49999 0,-13 6.5,0 6.5,0 0,-6.5 0,-6.5 13.5,0 13.5,0 0,-13.500005 0,-13.5 5.971,0 5.971,0 0.279,13.25 0.279,13.250005 6.75,0.29569 6.75,0.29569 0,5.95431 0,5.95431 -20,0 -20,0 0,6.5 0,6.5 -7,0 -7,0 0,7 0,7 -6,0 -6,0 0,-13 z m -40,-7 0,-6 6.5,0 6.5,0 0,6 0,6 -6.5,0 -6.5,0 0,-6 z m 173,0 0,-6 6.5,0 6.5,0 0,6 0,6 -6.5,0 -6.5,0 0,-6 z m -146,-20 0,-13.000005 6,0 6,0 0,13.000005 0,13 -6,0 -6,0 0,-13 z m 133,-0.5 0,-13.500005 -6.5,0 -6.5,0 0,-6 0,-6 19.5,0 19.5,0 0,6 0,6 -7,0 -7,0 0,13.500005 0,13.5 -6,0 -6,0 0,-13.5 z m -160,-12.500005 0,-13 6.5,0 6.5,0 0,13 0,13.000005 -6.5,0 -6.5,0 0,-13.000005 z m 120,6.500005 0,-6.500005 6,0 6,0 0,6.500005 0,6.5 -6,0 -6,0 0,-6.5 z m 80,-6.500005 0,-13 6,0 6,0 0,13 0,13.000005 -6,0 -6,0 0,-13.000005 z m -93,-7 0,-6 6,0 6,0 0,6 0,6 -6,0 -6,0 0,-6 z m 50.6861,-40.00626 c -1.5477,-0.47024 -3.4602,-1.3913 -4.25,-2.0468 -1.4809,-1.22906 -2.0192,-5.92108 -0.6861,-5.98021 0.4125,-0.0183 1.8611,-0.95775 3.2191,-2.08767 2.301,-1.91456 2.3463,-2.12306 0.6663,-3.06323 -1.7095,-0.95671 -1.6929,-1.12572 0.322,-3.27045 l 2.1247,-2.26161 -2.4652,-1.61525 c -3.3039,-2.1648 -4.0345,-4.96028 -2.2155,-8.47769 1.8716,-3.619318 6.5512,-5.709846 10.3292,-4.614363 1.5232,0.441667 4.2839,0.676521 6.1349,0.521898 2.2322,-0.186462 3.1384,0.08638 2.691,0.81025 -0.371,0.60026 -1.3587,1.091382 -2.1949,1.091382 -1.1689,0 -1.3682,0.693146 -0.862,2.997924 0.5442,2.478045 0.1378,3.518522 -2.3436,5.999999 -1.6512,1.65114 -3.8816,3.00208 -4.9566,3.00208 -2.247,0 -4.6535,2.45618 -3.7843,3.86251 0.3229,0.52256 2.8394,1.25988 5.5922,1.63849 2.7528,0.3786 6.0057,1.49865 7.2287,2.48901 5.99,4.85036 -5.7014,13.69223 -14.5499,11.00373 z m 9.6297,-2.14345 c 6.0444,-3.18154 4.7111,-7.34523 -2.8017,-8.74876 -5.8516,-1.0932 -9.5141,0.66286 -9.5141,4.56175 0,3.99444 7.705,6.61393 12.3158,4.18701 z m -1.8505,-19.20125 c 2.0983,-1.53433 2.3776,-6.92857 0.4772,-9.218366 -0.653,-0.786872 -2.7184,-1.430677 -4.5897,-1.430677 -2.709,0 -3.596,0.509443 -4.3528,2.5 -1.2447,3.273929 0.2862,7.278603 3.2355,8.463453 3.0614,1.2299 3.1229,1.22621 5.2298,-0.31441 z m -266.8499,9.2785 c -0.252,-0.78515 -1.6786,-5.25254 -3.1703,-9.92754 -1.4916,-4.675003 -3.1571,-9.062503 -3.701,-9.750003 -0.7479,-0.945297 -0.2134,-1.25 2.1925,-1.25 1.784,0 2.9201,0.422834 2.5865,0.962649 -0.7896,1.277655 3.6121,16.334294 4.4796,15.322884 0.3706,-0.43204 1.9291,-4.30553 3.4633,-8.607742 1.5343,-4.302215 3.139,-7.452215 3.566,-7 0.427,0.452215 2.0111,4.333065 3.5203,8.624112 1.5092,4.29105 3.0604,7.44105 3.4471,7 1.2594,-1.43608 4.1657,-13.429402 3.6071,-14.88507 -0.3456,-0.900519 0.1152,-1.416833 1.2645,-1.416833 1.6658,0 1.569,0.824 -1.2308,10.469513 -1.6714,5.75823 -3.604,10.68636 -4.2947,10.95141 -0.8135,0.31215 -2.2319,-2.14284 -4.0269,-6.96951 -1.524,-4.09828 -3.0643,-7.451413 -3.4229,-7.451413 -0.3585,0 -1.6743,2.812503 -2.9239,6.250003 -2.5849,7.11045 -4.6079,10.00997 -5.3564,7.67754 z m 32.3686,-9.92662 -3.5105,-11.000923 3.0133,0.01531 c 1.6573,0.0084 2.5104,0.345922 1.8958,0.75 -0.7962,0.523552 -0.5056,2.797477 1.0113,7.912584 1.1707,3.947839 2.4216,7.470869 2.7796,7.828939 0.3581,0.35807 1.9083,-3.20949 3.4449,-7.9279 1.5366,-4.718412 3.0908,-8.578933 3.4538,-8.578933 0.363,0 1.9087,3.4875 3.4349,7.75 1.5263,4.262503 3.1017,8.117663 3.501,8.567033 0.3993,0.44936 1.6765,-2.67982 2.8383,-6.95374 1.6305,-5.998097 1.8319,-7.948924 0.883,-8.551721 -0.7621,-0.484135 -0.181,-0.786766 1.5291,-0.796259 2.3239,-0.0129 2.6089,0.260415 1.8092,1.734687 -0.5222,0.9625 -2.2135,5.8 -3.7585,10.750003 -1.545,4.95 -3.2384,9 -3.763,9 -0.5246,0 -2.1515,-3.15 -3.6152,-7 -1.4637,-3.85 -3.048,-7.000003 -3.5207,-7.000003 -0.4727,0 -1.9959,3.113203 -3.3849,6.918233 -1.3889,3.80504 -2.9766,7.06795 -3.5281,7.25093 -0.5516,0.18298 -2.5825,-4.61773 -4.5133,-10.66824 z m 35.8898,0.8222 c -1.7848,-5.677718 -3.724,-10.653732 -4.3094,-11.05781 -0.5854,-0.404078 0.384,-0.741578 2.1543,-0.75 2.1546,-0.01025 3.0686,0.397884 2.7649,1.234687 -0.2496,0.6875 0.6099,4.625 1.91,8.750003 2.6447,8.39171 2.0919,8.70411 6.6009,-3.730585 1.2427,-3.42682 2.546,-6.053397 2.8964,-5.836837 0.3505,0.21656 1.9598,4.031363 3.5764,8.477339 1.6166,4.445973 3.2309,7.747553 3.5873,7.336833 1.2208,-1.40675 4.0961,-13.411688 3.5519,-14.82992 -0.3494,-0.910379 0.1231,-1.416833 1.3216,-1.416833 1.7377,0 1.647,0.73085 -1.3255,10.681373 -1.755,5.87476 -3.6806,10.84463 -4.2791,11.04415 -0.5986,0.19952 -2.3265,-3.03209 -3.8399,-7.18138 -1.5133,-4.14928 -3.0918,-7.544143 -3.5078,-7.544143 -0.4159,0 -1.7958,2.944753 -3.0664,6.543893 -3.6282,10.27736 -4.3099,10.13139 -8.0356,-1.72077 z m 32.5992,9.13307 c -0.7942,-1.28506 1.2924,-3.95619 3.0905,-3.95619 1.7807,0 2.5745,1.47687 1.8328,3.40975 -0.6854,1.78605 -3.9344,2.14665 -4.9233,0.54644 z m 11.777,-0.0363 c 1.4585,-0.84948 1.75,-2.49649 1.75,-9.88626 0,-6.176641 -0.3792,-9.009356 -1.25,-9.336239 -0.7297,-0.273931 -0.2093,-0.880094 1.25,-1.456242 2.2932,-0.905333 2.5262,-0.7456 2.8168,1.930944 l 0.3167,2.917924 3.468,-3.045015 c 1.9075,-1.674758 4.3203,-3.045015 5.3619,-3.045015 2.2815,0 5.0366,2.557324 5.0366,4.675021 0,1.079845 1.0436,0.615934 3.5348,-1.571429 7.2307,-6.348632 10.4652,-3.592274 10.4652,8.918141 0,7.40112 0.2913,9.04853 1.75,9.89817 1.337,0.77871 0.4519,1.01048 -3.75,0.98201 -4.8141,-0.0326 -5.2076,-0.17785 -3.1554,-1.16462 2.2274,-1.07099 2.3274,-1.54439 2,-9.46891 -0.4399,-10.649856 -2.5682,-12.369625 -8.5946,-6.945057 -1.9127,1.721688 -2.25,3.041095 -2.25,8.801297 0,5.39837 0.3558,6.98323 1.75,7.79528 1.356,0.7898 0.6244,1.01928 -3.25,1.01928 -3.8743,0 -4.606,-0.22948 -3.25,-1.01928 1.4324,-0.83427 1.75,-2.44943 1.75,-8.89817 0,-9.704112 -1.3959,-11.902609 -6.0343,-9.503963 -3.9809,2.058606 -4.9657,4.328991 -4.9657,11.448713 0,5.38918 0.2616,6.20308 2.25,7.00235 1.7559,0.70576 1.042,0.91164 -3.25,0.93737 -4.2033,0.0252 -5.0874,-0.20733 -3.75,-0.9863 z m 41,0 c 1.4604,-0.8506 1.75,-2.50045 1.75,-9.96959 0,-5.30021 -0.4078,-8.950313 -1,-8.950313 -2.0847,0 -0.89,-1.787859 1.5,-2.244751 l 2.5,-0.477905 0,10.208509 c 0,9.59842 0.1345,10.27337 2.25,11.29365 1.9163,0.9242 1.4343,1.09066 -3.25,1.12241 -4.2019,0.0285 -5.0869,-0.2033 -3.75,-0.98201 z m 17.5,-1e-5 c -2.3155,-1.34865 -4.75,-6.17659 -4.75,-9.41989 0,-8.177343 10.6036,-15.500167 16.2902,-11.250003 1.125,0.84077 1.381,1.712325 0.7819,2.662179 -0.7527,1.193528 -1.1479,1.154819 -2.5527,-0.25 -6.0253,-6.025284 -14.3005,4.059048 -10.06,12.259304 2.2615,4.37325 6.0263,5.66992 10.5356,3.62867 l 3.505,-1.58662 -3,2.51327 c -3.1442,2.63408 -7.6636,3.24076 -10.75,1.44309 z m 18.5,1e-5 c 1.5506,-0.90312 1.75,-2.83142 1.75,-16.919903 0,-14.0884825 -0.1994,-16.0167835 -1.75,-16.9199015 -1.5805,-0.920592 -1.5884,-1.022225 -0.082,-1.04969 0.9176,-0.01673 2.3801,-0.303553 3.25,-0.637397 1.3781,-0.52882104 1.5818,0.694591 1.5818,9.4999995 0,5.558844 0.3129,10.106989 0.6953,10.106989 0.3824,0 1.8449,-1.092905 3.25,-2.428677 3.4854,-3.313419 7.3245,-4.15875 9.411,-2.072222 1.2752,1.275266 1.6437,3.611066 1.6437,10.419512 0,8.1126 0.1701,8.85776 2.25,9.86089 1.9163,0.9242 1.4343,1.09066 -3.25,1.12241 -4.2019,0.0285 -5.0869,-0.2033 -3.75,-0.98201 1.4162,-0.82481 1.75,-2.42513 1.75,-8.38781 0,-4.052683 -0.2731,-8.080322 -0.607,-8.950306 -0.9137,-2.381118 -4.8571,-1.903567 -8.3162,1.007107 -2.8495,2.39764 -3.0768,3.064891 -3.0768,9.032219 0,5.74734 0.2431,6.54102 2.25,7.34772 1.7559,0.70576 1.042,0.91164 -3.25,0.93737 -4.2033,0.0252 -5.0874,-0.20733 -3.75,-0.9863 z m 30.4107,-1.53198 c -4.6157,-4.61569 -4.3913,-11.830555 0.5315,-17.08605 4.3674,-4.662572 11.3701,-3.551476 14.0004,2.221403 1.8097,3.971937 -0.3375,5.476727 -7.815,5.476727 -6.1664,0 -6.3776,0.0843 -6.3776,2.54545 0,2.93808 4.0681,7.45743 6.7046,7.44839 0.9875,-0.003 3.1454,-0.68028 4.7954,-1.50419 l 3,-1.49803 -2.8057,2.50419 c -3.7939,3.38612 -8.5825,3.34318 -12.0336,-0.10789 z m 11.3393,-13.687923 c 0,-1.265 -0.54,-2.84 -1.2,-3.5 -1.989,-1.989045 -6.5283,-1.425992 -8.2433,1.022506 -2.7362,3.906458 -2.0172,4.777494 3.9433,4.777494 5.0725,0 5.5,-0.178788 5.5,-2.3 z m 9.75,15.268833 c 2.2018,-0.88499 2.25,-1.24707 2.25,-16.886919 0,-14.1664965 -0.1988,-16.0983505 -1.75,-17.0018155 -1.5805,-0.920592 -1.5884,-1.022225 -0.082,-1.04969 0.9176,-0.01673 2.3801,-0.303553 3.25,-0.637397 1.4056,-0.53935704 1.5818,1.358411 1.5818,17.0322235 0,17.357888 0.036,17.653638 2.25,18.543598 1.7134,0.6887 0.8191,0.90439 -3.75,0.90439 -4.569,0 -5.4634,-0.21569 -3.75,-0.90439 z m 41.8215,-0.54026 c -1.174,-1.17394 -1.5715,-3.65282 -1.5715,-9.8 0,-4.525716 -0.4815,-8.710089 -1.07,-9.298608 -0.76,-0.760046 -0.3255,-1.212362 1.5,-1.561328 l 2.57,-0.491293 0,8.670198 c 0,10.901231 1.2206,13.143591 6.1692,11.333831 l 3.3308,-1.2181 -2.3607,1.96836 c -2.8443,2.37148 -6.4273,2.53747 -8.5678,0.39694 z m 12.9859,-0.67857 c -0.3718,-1.2375 -0.6189,-5.80468 -0.5492,-10.14928 0.089,-5.560583 -0.2633,-8.14661 -1.1907,-8.734686 -0.9322,-0.591125 -0.6595,-0.839889 0.9325,-0.850724 1.2375,-0.0084 2.5875,-0.01929 3,-0.02416 0.4125,-0.0049 0.975,4.382636 1.25,9.75 0.4073,7.94893 0.7782,9.70979 2,9.49436 1.0383,-0.18306 0.9024,0.20176 -0.4411,1.25 -2.7074,2.11235 -4.2125,1.89102 -5.0015,-0.73552 z m 13.3657,-0.67308 c -6.6901,-6.69007 -1.3073,-20.076923 8.0727,-20.076923 4.8058,0 9.4265,8.856496 5.4224,10.393013 -0.8699,0.33384 -4.2937,0.60699 -7.6084,0.60699 l -6.0266,0 0.6826,2.75 c 0.8752,3.52628 4.3463,7.25 6.7582,7.25 1.0314,0 3.203,-0.68656 4.8257,-1.52568 3.977,-2.05661 3.7589,-0.93791 -0.2997,1.53664 -4.6498,2.83508 -8.35,2.54286 -11.8269,-0.93404 z m 12.0769,-12.354417 c 0,-2.384653 -3.1037,-5.722574 -5.3067,-5.707193 -3.0213,0.02109 -4.3917,1.061228 -5.606,4.255039 l -1.0378,2.729648 5.9753,0 c 4.1821,0 5.9752,-0.383367 5.9752,-1.277494 z m 9.25,14.197397 c 1.4557,-0.84786 1.75,-2.49093 1.75,-9.76959 0,-4.882021 -0.473,-9.223349 -1.07,-9.820348 -0.76,-0.760046 -0.3255,-1.212362 1.5,-1.561328 2.3068,-0.440971 2.57,-0.178119 2.57,2.566202 l 0,3.057495 3.2976,-3.196167 c 4.9706,-4.817667 8.4695,-4.100544 7.0763,1.450336 -0.6651,2.650154 -0.7135,2.667764 -1.4984,0.545989 -1.2098,-3.270488 -4.5614,-2.755804 -6.8864,1.057508 -1.3505,2.214882 -1.9828,5.032693 -1.9853,8.847183 0,4.81826 0.3094,5.7482 2.2462,6.68232 1.9163,0.9242 1.4343,1.09066 -3.25,1.12241 -4.2019,0.0285 -5.0869,-0.2033 -3.75,-0.98201 z m 21,0 c 1.4604,-0.8506 1.75,-2.50045 1.75,-9.96959 0,-5.30021 -0.4078,-8.950313 -1,-8.950313 -2.0847,0 -0.89,-1.787859 1.5,-2.244751 l 2.5,-0.477905 0,10.393549 c 0,9.84387 0.119,10.44139 2.25,11.29794 1.7559,0.70576 1.042,0.91164 -3.25,0.93737 -4.2033,0.0252 -5.0874,-0.20733 -3.75,-0.9863 z m 13.5,-0.1404 c 2.0605,-0.9937 2.25,-1.77157 2.25,-9.23232 0,-4.939614 -0.4658,-8.613064 -1.1833,-9.330516 -1.3939,-1.393945 -1.0326,-1.903001 1.6833,-2.371598 1.5386,-0.265458 2.0722,0.280365 2.3127,2.365821 l 0.3126,2.71089 4.0874,-2.96089 c 7.9282,-5.743137 10.7873,-3.273389 10.7873,9.318163 0,7.15605 0.2975,8.79483 1.75,9.64085 1.337,0.77871 0.4519,1.01048 -3.75,0.98201 -4.6843,-0.0317 -5.1663,-0.19821 -3.25,-1.12241 1.9987,-0.96393 2.2485,-1.822 2.2364,-7.68232 -0.01,-3.62845 -0.285,-7.609683 -0.6167,-8.847183 -0.8759,-3.268576 -5.2898,-2.986579 -8.6826,0.554719 -2.3204,2.421951 -2.6871,3.643425 -2.6871,8.950314 0,4.79797 0.3838,6.3691 1.75,7.16487 1.337,0.77871 0.4519,1.01048 -3.75,0.98201 -4.6843,-0.0317 -5.1663,-0.19821 -3.25,-1.12241 z m 28.8058,0.31074 c -0.9664,-1.56368 0.573,-4.09024 2.4922,-4.09024 2.2567,0 3.1558,1.30549 2.3483,3.40975 -0.6572,1.71269 -3.9191,2.17126 -4.8405,0.68049 z m 11.6942,-0.17034 c 1.4698,-0.85607 1.75,-2.52077 1.75,-10.39627 0,-8.089577 -0.2402,-9.439773 -1.75,-9.834307 -1.6666,-0.435546 -1.6666,-0.462847 0,-0.573325 1.1754,-0.07791 1.75,-0.947436 1.75,-2.64812 0,-3.9183605 2.4574,-8.8823175 5.3284,-10.7634775 2.9588,-1.93864104 7.2195,-2.24503404 8.2407,-0.5926 0.9036,1.462013 -1.761,3.096272 -3.0107,1.846556 -1.3528,-1.352768 -4.1216,-1.189555 -5.3716,0.316639 -0.582,0.701249 -1.3701,3.626249 -1.7513,6.4999995 l -0.6931,5.225002 3.6878,0 c 2.429,0 3.4556,0.375758 3.0076,1.100744 -0.3869,0.62591 -1.9221,0.852382 -3.559,0.525 l -2.8788,-0.575744 0,9.391663 c 0,9.3353 0.016,9.3977 2.75,10.39606 2.386,0.87143 1.9558,1.01081 -3.25,1.05292 -4.5372,0.0367 -5.5733,-0.19995 -4.25,-0.97074 z m 15.5,0.0489 c 2.0953,-0.84219 2.25,-1.51191 2.25,-9.73662 0,-5.536173 -0.4478,-9.280044 -1.2,-10.032223 -0.9333,-0.933333 -0.6,-1.2 1.5,-1.2 2.2658,0 2.7,0.433665 2.7,2.696167 l 0,2.696167 3.2976,-3.196167 c 4.9706,-4.817667 8.4695,-4.100544 7.0763,1.450336 -0.6651,2.650154 -0.7135,2.667764 -1.4984,0.545989 -1.2098,-3.270488 -4.5614,-2.755804 -6.8864,1.057508 -1.3705,2.247719 -1.9827,5.033203 -1.9853,9.032223 0,5.06354 0.2759,5.89463 2.2462,6.68661 1.7134,0.6887 0.8191,0.90439 -3.75,0.90439 -4.569,0 -5.4634,-0.21569 -3.75,-0.90439 z m -265.75,-28.8618545 c 0,-2.110998 2.5904,-3.578871 3.5566,-2.015427 0.9405,1.521727 -0.2962,3.908439 -2.0252,3.908439 -0.8422,0 -1.5314,-0.851855 -1.5314,-1.893012 z m 198,-0.04797 c 0,-1.067541 0.359,-2.162849 0.7978,-2.434017 1.4249,-0.880638 3.5107,1.128876 2.8793,2.774075 -0.8671,2.2596055 -3.6771,1.9997365 -3.6771,-0.340058 z"
     id="path3005"
     inkscape:connector-curvature="0" />
</svg>
